<svg xmlns="http://www.w3.org/2000/svg" width="19" height="18" fill="none" viewBox="0 0 19 18"><path fill="#000" stroke="#000" d="m8.92 17.31-.02-.03-.02-.02-5.22-6.22-.2-.23A51.68 51.68 0 0 1 1.9 8.92a5.5 5.5 0 0 1-1-3.2C.9 2.8 3.08.5 5.9.5c1.15 0 2.24.47 3.17 1.26l.32.27.33-.27A5.13 5.13 0 0 1 12.89.5c2.71 0 5 2.3 5 5.22 0 1.25-.45 2.41-1.18 3.28l-6.99 8.35c-.06.07-.1.1-.15.11a.72.72 0 0 1-.28.04c-.17 0-.29-.05-.37-.19Zm.86-1.74 6.19-7.4c.6-.66.82-1.54.82-2.45 0-2.16-1.7-4-3.8-4a4.1 4.1 0 0 0-3.07 1.55c-.2.21-.37.25-.53.25-.08 0-.26-.08-.42-.25a4.1 4.1 0 0 0-3.08-1.55c-2.1 0-3.78 1.83-3.8 3.97a3.6 3.6 0 0 0 .8 2.55c.18.24 1.07 1.32 2.2 2.68l3.92 4.65.39.45.38-.45Z"/></svg>